<?xml version="1.0" encoding="UTF-8" standalone="no"?> <svg id="Layer_1" data-name="Layer 1" xmlns="http://www.w3.org/2000/svg" viewBox="0 0 128 128"><defs><style>.cls-1{fill:#2e79bd;}.cls-2{fill:#2d3e50;}</style></defs><title>b</title><path class="cls-1" d="M53.46432,93.97664,40.31915,124.97757l-9.53852-9.2708-13.29856-.4121L31.75825,81.63161l.3309.67382a10.93467,10.93467,0,0,0,8.20293,6.001l6.63575.98966,5.41749,3.96159A11.58032,11.58032,0,0,0,53.46432,93.97664Z"/><path class="cls-1" d="M110.51793,115.29466l-13.29858.4121-9.5385,9.2708L74.28,93.375l1.09192.16243a10.92928,10.92928,0,0,0,9.59566-3.34495l4.58727-4.9001,6.338-2.20791c.28276-.09927.55648-.20756.82721-.32787Z"/><path class="cls-1" d="M79.37678,42.10132,68.87691,41.34l-3.96454-9.76774a1.00054,1.00054,0,0,0-.94677-.62585.97025.97025,0,0,0-.91273.621L59.08625,41.34l-10.50369.76165a.97278.97278,0,0,0-.87974.67969.98481.98481,0,0,0,.31015,1.08222l8.05932,6.79928-2.52008,10.239a.99692.99692,0,0,0,.38864,1.06867.97525.97525,0,0,0,1.11.03508l8.95677-5.56842,8.95365,5.59308a1.01183,1.01183,0,0,0,1.499-1.1034L71.93983,50.68751l8.06-6.79963a.99108.99108,0,0,0,.2966-1.0784A1.02324,1.02324,0,0,0,79.37678,42.10132Z"/><path class="cls-2" d="M106.06156,34.92318,100.916,28.78635l-1.70417-7.82511a5.66971,5.66971,0,0,0-3.38573-4.038l-7.40806-3.04262L83.2726,7.74371a5.66964,5.66964,0,0,0-4.87449-2.002l-7.97347.74851L63.01658,3.44758a5.66957,5.66957,0,0,0-5.24652.49253L51.05772,8.3084,43.08425,9.057a5.66965,5.66965,0,0,0-4.41668,2.87431l-3.91342,6.98729L28.04186,23.2868a5.66956,5.66956,0,0,0-2.575,4.5976l-.218,8.00559-3.91342,6.98729a5.66965,5.66965,0,0,0-.14344,5.26763l3.52738,7.18995-.218,8.00554a5.66964,5.66964,0,0,0,2.321,4.73095l6.46462,4.72708,3.52733,7.18995A5.66973,5.66973,0,0,0,41.068,83.09877l7.92093,1.1814,6.46462,4.72708a5.66941,5.66941,0,0,0,5.21194.77734l7.56266-2.63495L76.14906,88.331a5.66953,5.66953,0,0,0,4.9762-1.73382l5.47187-5.84767,7.56266-2.635a5.66959,5.66959,0,0,0,3.60046-3.84774L99.88779,66.546l5.47187-5.84772a5.66966,5.66966,0,0,0,1.39989-5.08023l-1.70421-7.82515,2.12754-7.72078A5.66959,5.66959,0,0,0,106.06156,34.92318ZM63.99957,72.513A25.95163,25.95163,0,1,1,89.95118,46.56139,25.95159,25.95159,0,0,1,63.99957,72.513Z"/></svg>